<svg xmlns="http://www.w3.org/2000/svg" width="24" height="24" viewBox="0 0 24 24"><path d="M12 2.2c1.6 1.6 1.9 3 .9 4.6 1.9.2 3.2 1.3 3.4 2.9 1.9.6 3.2 2 3.2 3.9 0 2.9-3.1 4.9-7.5 4.9s-7.5-2-7.5-4.9c0-1.9 1.3-3.3 3.2-3.9.2-1.6 1.5-2.7 3.4-2.9-1-1.6-.7-3 .9-4.6z" fill="#96613A"/><circle cx="9.2" cy="12.6" r="1" fill="#4A2C15"/><circle cx="14.8" cy="12.6" r="1" fill="#4A2C15"/><path d="M9.4 15.2c.7.9 1.6 1.3 2.6 1.3s1.9-.4 2.6-1.3" stroke="#4A2C15" stroke-width="1.2" stroke-linecap="round" fill="none"/></svg>
